<svg xmlns="http://www.w3.org/2000/svg" viewBox="0 0 512 512">
  <rect width="512" height="512" rx="112" fill="#002c5f"/>

  <path d="M120 280 L200 280 A40 40 0 0 1 240 240 L300 240 A40 40 0 0 1 340 280 L420 280" fill="none" stroke="#ffffff" stroke-width="16" stroke-linecap="round"/>
  <path d="M160 280 A40 40 0 0 0 200 320 L240 320 A40 40 0 0 0 280 280" fill="none" stroke="#ffffff" stroke-width="16" stroke-linecap="round"/>
  <path d="M300 280 A40 40 0 0 0 340 320 L380 320 A40 40 0 0 0 420 280" fill="none" stroke="#ffffff" stroke-width="16" stroke-linecap="round"/>

  <path d="M420 300 Q460 380 400 440 L340 440 Q300 400 320 320 L280 320 L280 300 L320 300" fill="none" stroke="#e63946" stroke-width="16" stroke-linecap="round"/>
  <circle cx="280" cy="310" r="10" fill="#e63946"/> <path d="M220 380 L280 420 L340 380" fill="none" stroke="#e63946" stroke-width="8" stroke-linecap="round"/>
  <path d="M280 420 L280 360 L270 370 L280 360 L290 370" fill="none" stroke="#e63946" stroke-width="8" stroke-linecap="round"/> <line x1="220" y1="380" x2="220" y2="400" stroke="#ffffff" stroke-width="8" stroke-linecap="round"/> <line x1="240" y1="385" x2="240" y2="405" stroke="#ffffff" stroke-width="8" stroke-linecap="round"/>
  <line x1="260" y1="390" x2="260" y2="410" stroke="#ffffff" stroke-width="8" stroke-linecap="round"/>

  <path d="M256 160 C 256 160 180 280 180 340 A 76 76 0 0 0 332 340 C 332 280 256 160 256 160 Z" fill="#ffffff" opacity="0.6"/>

  <text x="256" y="475" font-family="Poppins, Arial, sans-serif" font-size="28" fill="#ffffff" text-anchor="middle">YAKIT TAKİP</text>
  <text x="256" y="505" font-family="Poppins, Arial, sans-serif" font-size="28" fill="#e63946" text-anchor="middle">ASİSTANI PRO</text>
</svg>

